<?xml version="1.0" encoding="UTF-8" standalone="no"?>
<!-- Created with Inkscape (http://www.inkscape.org/) -->

<svg
   width="150mm"
   height="150mm"
   viewBox="0 0 150 150"
   version="1.1"
   id="svg5"
   xml:space="preserve"
   sodipodi:docname="logo_what.svg"
   inkscape:version="1.2.2 (b0a8486541, 2022-12-01)"
   xmlns:inkscape="http://www.inkscape.org/namespaces/inkscape"
   xmlns:sodipodi="http://sodipodi.sourceforge.net/DTD/sodipodi-0.dtd"
   xmlns="http://www.w3.org/2000/svg"
   xmlns:svg="http://www.w3.org/2000/svg"><sodipodi:namedview
     id="namedview7"
     pagecolor="#ffffff"
     bordercolor="#000000"
     borderopacity="0.25"
     inkscape:showpageshadow="2"
     inkscape:pageopacity="0.0"
     inkscape:pagecheckerboard="0"
     inkscape:deskcolor="#d1d1d1"
     inkscape:document-units="mm"
     showgrid="false"
     inkscape:zoom="1.0031004"
     inkscape:cx="148.04101"
     inkscape:cy="263.18401"
     inkscape:window-width="1366"
     inkscape:window-height="695"
     inkscape:window-x="0"
     inkscape:window-y="36"
     inkscape:window-maximized="1"
     inkscape:current-layer="layer2" /><defs
     id="defs2"><inkscape:path-effect
       effect="mirror_symmetry"
       start_point="121,211.3"
       end_point="121,178.22853"
       center_point="107.38,172.065"
       id="path-effect4231"
       is_visible="true"
       lpeversion="1.2"
       lpesatellites=""
       mode="free"
       discard_orig_path="false"
       fuse_paths="false"
       oposite_fuse="false"
       split_items="false"
       split_open="false"
       link_styles="false" /><inkscape:path-effect
       effect="mirror_symmetry"
       start_point="164.78,132.82565"
       end_point="167.28185,211.30435"
       center_point="166.03092,172.065"
       id="path-effect4229"
       is_visible="true"
       lpeversion="1.2"
       lpesatellites=""
       mode="free"
       discard_orig_path="false"
       fuse_paths="false"
       oposite_fuse="false"
       split_items="false"
       split_open="false"
       link_styles="false" /><inkscape:path-effect
       effect="mirror_symmetry"
       start_point="0,132.82565"
       end_point="167.28185,211.30435"
       center_point="83.640925,172.065"
       id="path-effect4227"
       is_visible="true"
       lpeversion="1.2"
       lpesatellites=""
       mode="free"
       discard_orig_path="false"
       fuse_paths="false"
       oposite_fuse="false"
       split_items="false"
       split_open="false"
       link_styles="false" /><inkscape:path-effect
       effect="mirror_symmetry"
       start_point="107.48096,188.07373"
       end_point="112.52067,188.07373"
       center_point="110.00081,188.07373"
       id="path-effect4211"
       is_visible="true"
       lpeversion="1.2"
       lpesatellites=""
       mode="Y"
       discard_orig_path="false"
       fuse_paths="false"
       oposite_fuse="false"
       split_items="false"
       split_open="false"
       link_styles="false" /><inkscape:path-effect
       effect="bspline"
       id="path-effect1791"
       is_visible="true"
       lpeversion="1"
       weight="33.333333"
       steps="2"
       helper_size="0"
       apply_no_weight="true"
       apply_with_weight="true"
       only_selected="false" /><inkscape:path-effect
       effect="bspline"
       id="path-effect1054"
       is_visible="true"
       lpeversion="1"
       weight="33.333333"
       steps="2"
       helper_size="0"
       apply_no_weight="true"
       apply_with_weight="true"
       only_selected="false" /><inkscape:path-effect
       effect="bspline"
       id="path-effect1050"
       is_visible="true"
       lpeversion="1"
       weight="33.333333"
       steps="2"
       helper_size="0"
       apply_no_weight="true"
       apply_with_weight="true"
       only_selected="false" /><inkscape:path-effect
       effect="spiro"
       id="path-effect331"
       is_visible="true"
       lpeversion="1" /><inkscape:path-effect
       effect="bspline"
       id="path-effect1054-3"
       is_visible="true"
       lpeversion="1"
       weight="33.333333"
       steps="2"
       helper_size="0"
       apply_no_weight="true"
       apply_with_weight="true"
       only_selected="false" /><inkscape:path-effect
       effect="bspline"
       id="path-effect1054-7"
       is_visible="true"
       lpeversion="1"
       weight="33.333333"
       steps="2"
       helper_size="0"
       apply_no_weight="true"
       apply_with_weight="true"
       only_selected="false" /><inkscape:path-effect
       effect="bspline"
       id="path-effect1791-5"
       is_visible="true"
       lpeversion="1"
       weight="33.333333"
       steps="2"
       helper_size="0"
       apply_no_weight="true"
       apply_with_weight="true"
       only_selected="false" /></defs><g
     inkscape:label="Layer 1"
     inkscape:groupmode="layer"
     id="layer1"
     transform="translate(-45.47595,-103.30881)"><g
       inkscape:groupmode="layer"
       id="layer2"
       inkscape:label="Layer 2"
       inkscape:path-effect="#path-effect4231"
       class="UnoptimicedTransforms"><path
         style="fill:#ff6600;stroke:#ff6600;stroke-width:0.351294;stroke-linecap:round;stroke-linejoin:round;paint-order:stroke markers fill"
         d="m 139.17466,175.06732 c -0.33516,0.34172 -1.00549,1.02516 -1.36293,2.14351 -0.35743,1.11836 -0.40198,2.67123 0.41905,3.43554 0.82103,0.76431 2.50718,0.74038 3.65043,0.42482 1.14325,-0.31555 1.74388,-0.92271 2.05576,-1.76957 0.31188,-0.84687 0.33501,-1.93374 0.0863,-2.73584 -0.2487,-0.80211 -0.76958,-1.31945 -1.56726,-1.57879 -0.79767,-0.25935 -1.87173,-0.26035 -2.40897,-0.26085 -0.53723,-5e-4 -0.53723,-5.3e-4 -0.87239,0.34118 z m -36.34932,0 c 0.33516,0.34172 1.00549,1.02516 1.36293,2.14351 0.35743,1.11836 0.40198,2.67123 -0.41905,3.43554 -0.82103,0.76431 -2.50718,0.74038 -3.65043,0.42482 -1.14325,-0.31555 -1.74388,-0.92271 -2.05576,-1.76957 -0.31188,-0.84687 -0.33501,-1.93374 -0.0863,-2.73584 0.2487,-0.80211 0.76958,-1.31945 1.56726,-1.57879 0.79767,-0.25935 1.87173,-0.26035 2.40897,-0.26085 0.53723,-5e-4 0.53723,-5.3e-4 0.87239,0.34118 z"
         id="path1052"
         inkscape:original-d="m 139.50982,174.72561 c -0.66996,0.68378 -1.3403,1.36721 -2.01097,2.0503 -0.0442,1.55329 -0.0887,3.10616 -0.13363,4.65871 1.68659,-0.0236 3.37275,-0.0475 5.0586,-0.0718 0.60099,-0.60684 1.20162,-1.21399 1.8019,-1.82151 0.0235,-1.08655 0.0465,-2.17342 0.0694,-3.26063 -0.52054,-0.51701 -1.04142,-1.03435 -1.56265,-1.55204 -1.07412,-7.5e-4 -2.14818,-0.002 -3.22265,-0.003 z"
         sodipodi:nodetypes="cccccccc"
         inkscape:path-effect="#path-effect1054" /><path
         style="fill:none;stroke:#ff6600;stroke-width:3;stroke-linecap:round;stroke-linejoin:round;stroke-dasharray:none;paint-order:stroke markers fill"
         d="m 166.54271,160.35922 c 1.91241,3.99461 3.82467,7.9889 5.73677,11.98288 M 75.45729,160.35922 c -1.91241,3.99461 -3.82467,7.9889 -5.73677,11.98288"
         id="path1789"
         inkscape:path-effect="#path-effect1791"
         inkscape:original-d="m 166.54271,160.35922 c 1.91252,3.99456 3.82478,7.98885 5.73677,11.98288"
         sodipodi:nodetypes="cc" /><path
         style="fill:none;stroke:#ff6600;stroke-width:4;stroke-linecap:round;stroke-linejoin:round;stroke-dasharray:none;paint-order:stroke markers fill"
         d="m 147.51294,203.05209 c 0,0 3.97963,6.96977 -3.14297,11.45097 -7.1226,4.4812 -14.14127,-0.0529 -14.14127,-0.0529 M 94.48706,203.05209 c 0,0 -3.97963,6.96977 3.14297,11.45097 7.1226,4.4812 14.14127,-0.0529 14.14127,-0.0529"
         id="path1795"
         sodipodi:nodetypes="czc"
         inkscape:original-d="m 147.51294,203.05209 c 0,0 3.97963,6.96977 -3.14297,11.45097 -7.1226,4.4812 -14.14127,-0.0529 -14.14127,-0.0529" /><path
         style="fill:none;stroke:#ff6600;stroke-width:4;stroke-linecap:round;stroke-linejoin:round;stroke-dasharray:none;paint-order:stroke markers fill"
         d="m 148.35993,205.33471 c 0,0 8.69207,3.16215 13.08306,-5.09736 4.391,-8.25951 -3.93604,-12.78788 -3.93604,-12.78788 m -63.86688,17.88524 c 0,0 -8.69207,3.16215 -13.08306,-5.09736 -4.391,-8.25951 3.93604,-12.78788 3.93604,-12.78788"
         id="path1797"
         sodipodi:nodetypes="czc"
         inkscape:original-d="m 148.35993,205.33471 c 0,0 8.69207,3.16215 13.08306,-5.09736 4.391,-8.25951 -3.93604,-12.78788 -3.93604,-12.78788" /><path
         style="fill:none;stroke:#ff6600;stroke-width:4;stroke-linecap:round;stroke-linejoin:round;stroke-dasharray:none;paint-order:stroke markers fill"
         d="m 159.18816,167.11171 c 12.6499,1.0286 8.56729,27.66111 -0.0917,21.46238 M 82.81184,167.11171 c -12.6499,1.0286 -8.56729,27.66111 0.0917,21.46238"
         id="path1866"
         sodipodi:nodetypes="cc"
         inkscape:original-d="m 159.18816,167.11171 c 12.6499,1.0286 8.56729,27.66111 -0.0917,21.46238" /><path
         style="fill:none;stroke:#ff6600;stroke-width:4;stroke-linecap:round;stroke-linejoin:round;stroke-dasharray:none;paint-order:stroke markers fill"
         d="m 157.09646,168.03502 c 7.44625,-9.6758 -3.99814,-23.92919 -14.03224,-17.77138 m -58.16068,17.77138 c -7.44625,-9.6758 3.99814,-23.92919 14.03224,-17.77138"
         id="path1868"
         sodipodi:nodetypes="cc"
         inkscape:original-d="m 157.09646,168.03502 c 7.44625,-9.6758 -3.99814,-23.92919 -14.03224,-17.77138" /><path
         style="fill:none;stroke:#ff6600;stroke-width:4;stroke-linecap:round;stroke-linejoin:round;stroke-dasharray:none;paint-order:stroke markers fill"
         d="m 150.04425,148.96615 c -1.25938,-13.73415 -17.09538,-10.4658 -16.8766,-4.02086 m -41.2119,4.02086 c 1.25938,-13.73415 17.09538,-10.4658 16.8766,-4.02086"
         id="path1870"
         sodipodi:nodetypes="cc"
         inkscape:original-d="m 150.04425,148.96615 c -1.25938,-13.73415 -17.09538,-10.4658 -16.8766,-4.02086" /><path
         style="fill:none;stroke:#ff6600;stroke-width:4;stroke-linecap:round;stroke-linejoin:round;stroke-dasharray:none;paint-order:stroke markers fill"
         d="m 121.3026,138.00238 c 3.91631,0.1228 6.69332,-0.6166 12.19931,5.23064 m -12.80451,-5.23064 c -3.91631,0.1228 -6.69332,-0.6166 -12.19931,5.23064"
         id="path1882"
         sodipodi:nodetypes="cc"
         inkscape:original-d="m 121.3026,138.00238 c 3.91631,0.1228 6.69332,-0.6166 12.19931,5.23064" /><path
         style="fill:none;stroke:#ff6600;stroke-width:3;stroke-linecap:round;stroke-linejoin:round;stroke-dasharray:none;paint-order:stroke markers fill"
         d="m 126.34231,185.89113 -5.03971,4.56154 c 0.84367,2.20369 3.36484,5.21472 6.61194,6.15969 m -12.25685,-10.72123 5.03971,4.56154 c -0.84367,2.20369 -3.36484,5.21472 -6.61194,6.15969"
         id="path2610"
         sodipodi:nodetypes="ccc"
         inkscape:original-d="m 126.34231,185.89113 -5.03971,4.56154 c 0.84367,2.20369 3.36484,5.21472 6.61194,6.15969" /><path
         style="fill:none;stroke:#ff6600;stroke-width:4;stroke-linecap:round;stroke-linejoin:round;stroke-dasharray:none;paint-order:stroke markers fill"
         d="m 153.91774,150.65732 c 0,0 22.63972,-6.5805 24.59294,-5.91453 5.97822,4.27143 0.36125,13.63035 -4.2312,17.16986 -4.59245,3.5395 -12.00892,6.09108 -12.00892,6.09108 m -74.1883,-17.34641 c 0,0 -22.63972,-6.5805 -24.59294,-5.91453 -5.97822,4.27143 -0.36125,13.63035 4.2312,17.16986 4.59245,3.5395 12.00892,6.09108 12.00892,6.09108"
         id="path2612"
         sodipodi:nodetypes="cczc"
         inkscape:original-d="m 153.91774,150.65732 c 0,0 22.63972,-6.5805 24.59294,-5.91453 5.97822,4.27143 0.36125,13.63035 -4.2312,17.16986 -4.59245,3.5395 -12.00892,6.09108 -12.00892,6.09108" /><path
         style="fill:none;stroke:#ff6600;stroke-width:3;stroke-linecap:round;stroke-linejoin:round;stroke-dasharray:none;paint-order:stroke markers fill"
         d="m 130.2287,214.45016 c 0,0 -2.62573,2.64613 -4.19259,3.31833 -1.56687,0.67219 -4.83447,0.68619 -4.83447,0.68619 m -9.43034,-4.00452 c 0,0 2.62573,2.64613 4.19259,3.31833 1.56687,0.67219 4.83447,0.68619 4.83447,0.68619"
         id="path4233"
         inkscape:original-d="m 130.2287,214.45016 c 0,0 -2.62573,2.64613 -4.19259,3.31833 -1.56687,0.67219 -4.83447,0.68619 -4.83447,0.68619"
         sodipodi:nodetypes="czc" /><path
         style="fill:none;stroke:#ff6600;stroke-width:3;stroke-linecap:round;stroke-linejoin:round;stroke-dasharray:none;paint-order:stroke markers fill"
         d="m 127.91454,196.61236 3.81416,-2.79216 m -17.64324,2.79216 -3.81416,-2.79216"
         id="path4237"
         inkscape:original-d="m 127.91454,196.61236 3.81416,-2.79216"
         sodipodi:nodetypes="cc" /><path
         style="fill:#ff6600;stroke:#ff6600;stroke-width:3;stroke-linecap:round;stroke-linejoin:round;stroke-dasharray:none;paint-order:stroke markers fill"
         d="m 145.78662,169.58001 c -4.24057,3.67515 -8.96107,0.45501 -8.96107,0.45501 m -40.61217,-0.45501 c 4.24057,3.67515 8.96107,0.45501 8.96107,0.45501"
         id="path5260"
         inkscape:original-d="m 145.78662,169.58001 c -4.24057,3.67515 -8.96107,0.45501 -8.96107,0.45501"
         sodipodi:nodetypes="cc" /></g></g></svg>
